<mxfile host="app.diagrams.net" modified="2024-06-11T00:39:33.891Z" agent="Mozilla/5.0 (Windows NT 10.0; Win64; x64) AppleWebKit/537.36 (KHTML, like Gecko) Chrome/125.0.0.0 Safari/537.36" etag="RGairP8g4iWBiHuMQt1e" version="24.5.2" type="device">
  <diagram name="PÃ¡gina-1" id="xRMZfEevZ_zfoJnca7Nm">
    <mxGraphModel dx="1114" dy="1727" grid="1" gridSize="10" guides="1" tooltips="1" connect="1" arrows="1" fold="1" page="1" pageScale="1" pageWidth="827" pageHeight="1169" math="0" shadow="0">
      <root>
        <mxCell id="0" />
        <mxCell id="1" parent="0" />
        <mxCell id="SjrYipQzIHmb5e42CeVk-10" style="edgeStyle=orthogonalEdgeStyle;rounded=0;orthogonalLoop=1;jettySize=auto;html=1;strokeColor=#000000;" parent="1" source="SjrYipQzIHmb5e42CeVk-6" target="SjrYipQzIHmb5e42CeVk-14" edge="1">
          <mxGeometry relative="1" as="geometry">
            <mxPoint x="330" y="45" as="targetPoint" />
          </mxGeometry>
        </mxCell>
        <mxCell id="SjrYipQzIHmb5e42CeVk-6" value="payment process started" style="html=1;whiteSpace=wrap;strokeColor=#000000;" parent="1" vertex="1">
          <mxGeometry x="70" y="20" width="110" height="50" as="geometry" />
        </mxCell>
        <mxCell id="5kPCcwuUvb3Ugseijiwn-12" style="edgeStyle=orthogonalEdgeStyle;rounded=0;orthogonalLoop=1;jettySize=auto;html=1;" edge="1" parent="1" source="SjrYipQzIHmb5e42CeVk-14" target="SjrYipQzIHmb5e42CeVk-30">
          <mxGeometry relative="1" as="geometry" />
        </mxCell>
        <mxCell id="SjrYipQzIHmb5e42CeVk-14" value="enter the shipping address" style="rounded=1;whiteSpace=wrap;html=1;arcSize=40;fontColor=#000000;fillColor=#ffffc0;strokeColor=#000000;" parent="1" vertex="1">
          <mxGeometry x="200" y="25" width="120" height="40" as="geometry" />
        </mxCell>
        <mxCell id="SjrYipQzIHmb5e42CeVk-16" value="Select Payment method" style="rounded=1;whiteSpace=wrap;html=1;arcSize=40;fontColor=#000000;fillColor=#ffffc0;strokeColor=#000000;" parent="1" vertex="1">
          <mxGeometry x="550" y="25" width="120" height="40" as="geometry" />
        </mxCell>
        <mxCell id="SjrYipQzIHmb5e42CeVk-17" value="" style="edgeStyle=orthogonalEdgeStyle;html=1;verticalAlign=bottom;endArrow=open;endSize=8;strokeColor=#000000;rounded=0;" parent="1" source="SjrYipQzIHmb5e42CeVk-16" target="SjrYipQzIHmb5e42CeVk-23" edge="1">
          <mxGeometry relative="1" as="geometry">
            <mxPoint x="399" y="420" as="targetPoint" />
            <Array as="points">
              <mxPoint x="620" y="40" />
              <mxPoint x="620" y="40" />
            </Array>
          </mxGeometry>
        </mxCell>
        <mxCell id="SjrYipQzIHmb5e42CeVk-18" value="Review items and shipping" style="rounded=1;whiteSpace=wrap;html=1;arcSize=40;fontColor=#000000;fillColor=#ffffc0;strokeColor=#000000;" parent="1" vertex="1">
          <mxGeometry x="580" y="137.5" width="120" height="40" as="geometry" />
        </mxCell>
        <mxCell id="SjrYipQzIHmb5e42CeVk-19" value="" style="edgeStyle=orthogonalEdgeStyle;html=1;verticalAlign=bottom;endArrow=open;endSize=8;strokeColor=#000000;rounded=0;" parent="1" source="SjrYipQzIHmb5e42CeVk-18" target="SjrYipQzIHmb5e42CeVk-26" edge="1">
          <mxGeometry relative="1" as="geometry">
            <mxPoint x="399" y="600" as="targetPoint" />
          </mxGeometry>
        </mxCell>
        <mxCell id="5kPCcwuUvb3Ugseijiwn-2" style="edgeStyle=orthogonalEdgeStyle;rounded=0;orthogonalLoop=1;jettySize=auto;html=1;entryX=1;entryY=0.5;entryDx=0;entryDy=0;" edge="1" parent="1" source="SjrYipQzIHmb5e42CeVk-23" target="SjrYipQzIHmb5e42CeVk-18">
          <mxGeometry relative="1" as="geometry">
            <mxPoint x="685.5" y="120" as="targetPoint" />
          </mxGeometry>
        </mxCell>
        <mxCell id="5kPCcwuUvb3Ugseijiwn-5" value="Yes" style="edgeLabel;html=1;align=center;verticalAlign=middle;resizable=0;points=[];" vertex="1" connectable="0" parent="5kPCcwuUvb3Ugseijiwn-2">
          <mxGeometry x="-0.5143" relative="1" as="geometry">
            <mxPoint as="offset" />
          </mxGeometry>
        </mxCell>
        <mxCell id="5kPCcwuUvb3Ugseijiwn-3" style="edgeStyle=orthogonalEdgeStyle;rounded=0;orthogonalLoop=1;jettySize=auto;html=1;exitX=0.5;exitY=0;exitDx=0;exitDy=0;entryX=0.5;entryY=0;entryDx=0;entryDy=0;" edge="1" parent="1" source="SjrYipQzIHmb5e42CeVk-23" target="SjrYipQzIHmb5e42CeVk-16">
          <mxGeometry relative="1" as="geometry">
            <Array as="points">
              <mxPoint x="686" />
              <mxPoint x="519" />
            </Array>
          </mxGeometry>
        </mxCell>
        <mxCell id="5kPCcwuUvb3Ugseijiwn-4" value="No" style="edgeLabel;html=1;align=center;verticalAlign=middle;resizable=0;points=[];" vertex="1" connectable="0" parent="5kPCcwuUvb3Ugseijiwn-3">
          <mxGeometry x="-0.1911" relative="1" as="geometry">
            <mxPoint as="offset" />
          </mxGeometry>
        </mxCell>
        <mxCell id="SjrYipQzIHmb5e42CeVk-23" value="is a valid pay method" style="rhombus;whiteSpace=wrap;html=1;fontColor=#000000;fillColor=#ffffc0;strokeColor=#000000;" parent="1" vertex="1">
          <mxGeometry x="700" y="15" width="91" height="60" as="geometry" />
        </mxCell>
        <mxCell id="5kPCcwuUvb3Ugseijiwn-15" style="edgeStyle=orthogonalEdgeStyle;rounded=0;orthogonalLoop=1;jettySize=auto;html=1;" edge="1" parent="1" source="SjrYipQzIHmb5e42CeVk-26" target="SjrYipQzIHmb5e42CeVk-33">
          <mxGeometry relative="1" as="geometry" />
        </mxCell>
        <mxCell id="5kPCcwuUvb3Ugseijiwn-23" value="yes" style="edgeLabel;html=1;align=center;verticalAlign=middle;resizable=0;points=[];" vertex="1" connectable="0" parent="5kPCcwuUvb3Ugseijiwn-15">
          <mxGeometry x="-0.2444" y="-1" relative="1" as="geometry">
            <mxPoint as="offset" />
          </mxGeometry>
        </mxCell>
        <mxCell id="5kPCcwuUvb3Ugseijiwn-24" style="edgeStyle=orthogonalEdgeStyle;rounded=0;orthogonalLoop=1;jettySize=auto;html=1;" edge="1" parent="1" source="SjrYipQzIHmb5e42CeVk-26" target="SjrYipQzIHmb5e42CeVk-29">
          <mxGeometry relative="1" as="geometry">
            <Array as="points">
              <mxPoint x="505" y="240" />
            </Array>
          </mxGeometry>
        </mxCell>
        <mxCell id="5kPCcwuUvb3Ugseijiwn-25" value="no" style="edgeLabel;html=1;align=center;verticalAlign=middle;resizable=0;points=[];" vertex="1" connectable="0" parent="5kPCcwuUvb3Ugseijiwn-24">
          <mxGeometry x="-0.0426" y="3" relative="1" as="geometry">
            <mxPoint x="1" as="offset" />
          </mxGeometry>
        </mxCell>
        <mxCell id="SjrYipQzIHmb5e42CeVk-26" value="&lt;font style=&quot;font-size: 10px;&quot;&gt;are the&amp;nbsp;&lt;span style=&quot;background-color: initial;&quot;&gt;correct items&lt;/span&gt;&lt;/font&gt;" style="rhombus;whiteSpace=wrap;html=1;fontColor=#000000;fillColor=#ffffc0;strokeColor=#000000;" parent="1" vertex="1">
          <mxGeometry x="459" y="130" width="91" height="55" as="geometry" />
        </mxCell>
        <mxCell id="SjrYipQzIHmb5e42CeVk-29" value="" style="ellipse;html=1;shape=endState;fillColor=#000000;strokeColor=#ff0000;" parent="1" vertex="1">
          <mxGeometry x="330" y="225" width="30" height="30" as="geometry" />
        </mxCell>
        <mxCell id="5kPCcwuUvb3Ugseijiwn-9" style="edgeStyle=orthogonalEdgeStyle;rounded=0;orthogonalLoop=1;jettySize=auto;html=1;entryX=0.5;entryY=1;entryDx=0;entryDy=0;exitX=0.5;exitY=1;exitDx=0;exitDy=0;" edge="1" parent="1" source="SjrYipQzIHmb5e42CeVk-30" target="SjrYipQzIHmb5e42CeVk-14">
          <mxGeometry relative="1" as="geometry">
            <Array as="points">
              <mxPoint x="435" y="100" />
              <mxPoint x="260" y="100" />
            </Array>
          </mxGeometry>
        </mxCell>
        <mxCell id="5kPCcwuUvb3Ugseijiwn-10" value="no" style="edgeLabel;html=1;align=center;verticalAlign=middle;resizable=0;points=[];" vertex="1" connectable="0" parent="5kPCcwuUvb3Ugseijiwn-9">
          <mxGeometry x="-0.4175" y="-1" relative="1" as="geometry">
            <mxPoint x="-39" as="offset" />
          </mxGeometry>
        </mxCell>
        <mxCell id="5kPCcwuUvb3Ugseijiwn-13" style="edgeStyle=orthogonalEdgeStyle;rounded=0;orthogonalLoop=1;jettySize=auto;html=1;entryX=0;entryY=0.5;entryDx=0;entryDy=0;" edge="1" parent="1" source="SjrYipQzIHmb5e42CeVk-30" target="SjrYipQzIHmb5e42CeVk-16">
          <mxGeometry relative="1" as="geometry" />
        </mxCell>
        <mxCell id="5kPCcwuUvb3Ugseijiwn-14" value="yes" style="edgeLabel;html=1;align=center;verticalAlign=middle;resizable=0;points=[];" vertex="1" connectable="0" parent="5kPCcwuUvb3Ugseijiwn-13">
          <mxGeometry x="0.24" y="-2" relative="1" as="geometry">
            <mxPoint x="-11" y="-2" as="offset" />
          </mxGeometry>
        </mxCell>
        <mxCell id="SjrYipQzIHmb5e42CeVk-30" value="the shipping&amp;nbsp;&lt;div&gt;address&amp;nbsp;&lt;div&gt;&amp;nbsp;is correct&lt;/div&gt;&lt;/div&gt;" style="rhombus;whiteSpace=wrap;html=1;fontColor=#000000;fillColor=#ffffc0;strokeColor=#000000;" parent="1" vertex="1">
          <mxGeometry x="370" y="-5" width="130" height="100" as="geometry" />
        </mxCell>
        <mxCell id="SjrYipQzIHmb5e42CeVk-33" value="process the payment" style="rounded=1;whiteSpace=wrap;html=1;arcSize=40;fontColor=#000000;fillColor=#ffffc0;strokeColor=#000000;" parent="1" vertex="1">
          <mxGeometry x="294" y="137.5" width="120" height="40" as="geometry" />
        </mxCell>
        <mxCell id="SjrYipQzIHmb5e42CeVk-34" value="" style="edgeStyle=orthogonalEdgeStyle;html=1;verticalAlign=bottom;endArrow=open;endSize=8;strokeColor=#000000;rounded=0;" parent="1" source="SjrYipQzIHmb5e42CeVk-33" target="SjrYipQzIHmb5e42CeVk-35" edge="1">
          <mxGeometry relative="1" as="geometry">
            <mxPoint x="400" y="900" as="targetPoint" />
          </mxGeometry>
        </mxCell>
        <mxCell id="5kPCcwuUvb3Ugseijiwn-16" style="edgeStyle=orthogonalEdgeStyle;rounded=0;orthogonalLoop=1;jettySize=auto;html=1;" edge="1" parent="1" source="SjrYipQzIHmb5e42CeVk-35" target="SjrYipQzIHmb5e42CeVk-38">
          <mxGeometry relative="1" as="geometry" />
        </mxCell>
        <mxCell id="5kPCcwuUvb3Ugseijiwn-17" value="yes" style="edgeLabel;html=1;align=center;verticalAlign=middle;resizable=0;points=[];" vertex="1" connectable="0" parent="5kPCcwuUvb3Ugseijiwn-16">
          <mxGeometry x="-0.2235" y="-1" relative="1" as="geometry">
            <mxPoint as="offset" />
          </mxGeometry>
        </mxCell>
        <mxCell id="5kPCcwuUvb3Ugseijiwn-21" style="edgeStyle=orthogonalEdgeStyle;rounded=0;orthogonalLoop=1;jettySize=auto;html=1;" edge="1" parent="1" source="SjrYipQzIHmb5e42CeVk-35" target="SjrYipQzIHmb5e42CeVk-6">
          <mxGeometry relative="1" as="geometry" />
        </mxCell>
        <mxCell id="5kPCcwuUvb3Ugseijiwn-22" value="no" style="edgeLabel;html=1;align=center;verticalAlign=middle;resizable=0;points=[];" vertex="1" connectable="0" parent="5kPCcwuUvb3Ugseijiwn-21">
          <mxGeometry x="-0.1777" y="-4" relative="1" as="geometry">
            <mxPoint as="offset" />
          </mxGeometry>
        </mxCell>
        <mxCell id="SjrYipQzIHmb5e42CeVk-35" value="payment confirmed" style="rhombus;whiteSpace=wrap;html=1;fontColor=#000000;fillColor=#ffffc0;strokeColor=#000000;" parent="1" vertex="1">
          <mxGeometry x="170" y="137.5" width="80" height="40" as="geometry" />
        </mxCell>
        <mxCell id="5kPCcwuUvb3Ugseijiwn-18" style="edgeStyle=orthogonalEdgeStyle;rounded=0;orthogonalLoop=1;jettySize=auto;html=1;" edge="1" parent="1" source="SjrYipQzIHmb5e42CeVk-38" target="SjrYipQzIHmb5e42CeVk-29">
          <mxGeometry relative="1" as="geometry" />
        </mxCell>
        <mxCell id="SjrYipQzIHmb5e42CeVk-38" value="order confirmation&amp;nbsp;" style="rounded=1;whiteSpace=wrap;html=1;arcSize=40;fontColor=#000000;fillColor=#ffffc0;strokeColor=#000000;" parent="1" vertex="1">
          <mxGeometry x="150" y="220" width="120" height="40" as="geometry" />
        </mxCell>
        <mxCell id="SjrYipQzIHmb5e42CeVk-40" value="" style="ellipse;html=1;shape=startState;fillColor=#000000;strokeColor=#ff0000;" parent="1" vertex="1">
          <mxGeometry x="20" y="30" width="30" height="30" as="geometry" />
        </mxCell>
        <mxCell id="SjrYipQzIHmb5e42CeVk-41" value="" style="edgeStyle=orthogonalEdgeStyle;html=1;verticalAlign=bottom;endArrow=open;endSize=8;strokeColor=#ff0000;rounded=0;" parent="1" source="SjrYipQzIHmb5e42CeVk-40" target="SjrYipQzIHmb5e42CeVk-6" edge="1">
          <mxGeometry relative="1" as="geometry">
            <mxPoint x="400" y="120" as="targetPoint" />
          </mxGeometry>
        </mxCell>
      </root>
    </mxGraphModel>
  </diagram>
</mxfile>
